<svg xmlns="http://www.w3.org/2000/svg" width="72.798" height="93.362" viewBox="0 0 72.798 93.362">
  <path id="Icon_simple-iconjar" data-name="Icon simple-iconjar" d="M14.251,22.854a3.811,3.811,0,0,1-3.641-3.711c0-4.493,11.118-7.819,23.768-7.819,1.148,0,1.914,0,1.914-.973,0-1.758-3.832-2.342-3.832-5.271C32.46,1.953,36.1,0,40.7,0s8.243,1.953,8.243,5.08c0,2.929-3.832,3.318-3.832,5.271,0,.587.576.976,1.914.976,12.651,0,23.963,3.124,23.963,7.815a3.672,3.672,0,0,1-3.645,3.707H14.255ZM71.56,40.624a12.892,12.892,0,0,1,5.563,13.09L71.754,83.2A12.385,12.385,0,0,1,59.672,93.362H22.109A12.387,12.387,0,0,1,10.034,83.2L4.666,53.714a12.864,12.864,0,0,1,5.753-12.9c2.684-1.949,3.256-5.271,0-6.442-4.6-1.758-3.645-7.422.957-7.422H39.358c4.407,0,9.78,3.318,9.78,14.063S44.15,50.781,44.15,58.4c0,3.322,2.684,6.839,5.94,7.232,5.563.584,8.819-1.564,8.819-9.375,0-8.014-4.6-11.721-4.6-18.361,0-8.01,4.979-11.137,8.239-11.137H70.6c4.6,0,5.559,5.668.957,7.426-3.256,1.362-2.684,4.688,0,6.442Z" transform="translate(-4.498)" fill="#ff9e00"/>
</svg>
